<?xml version="1.0" encoding="utf-8"?>
<!-- Generator: Adobe Illustrator 16.0.2, SVG Export Plug-In . SVG Version: 6.00 Build 0)  -->
<!DOCTYPE svg PUBLIC "-//W3C//DTD SVG 1.1//EN" "http://www.w3.org/Graphics/SVG/1.1/DTD/svg11.dtd">
<svg version="1.1" id="Layer_1" xmlns="http://www.w3.org/2000/svg" xmlns:xlink="http://www.w3.org/1999/xlink" x="0px" y="0px"
	 width="960px" height="560px" viewBox="0 0 960 560" enable-background="new 0 0 960 560" xml:space="preserve">
<rect width="960" height="560"/>
<g>
	<linearGradient id="SVGID_1_" gradientUnits="userSpaceOnUse" x1="905.6523" y1="247.5996" x2="905.6523" y2="0">
		<stop  offset="0" style="stop-color:#020202"/>
		<stop  offset="1" style="stop-color:#262626"/>
	</linearGradient>
	<path fill="url(#SVGID_1_)" d="M854.945,4.639c8.109,18.51,16.121,37.018,24.135,55.527c13.032,30.066,26.016,60.179,39,90.291
		c13.973,32.382,27.982,64.762,41.92,97.143V0H851.306C852.854,0.836,853.909,2.277,854.945,4.639z"/>
	<linearGradient id="SVGID_2_" gradientUnits="userSpaceOnUse" x1="480.0005" y1="560" x2="480.0005" y2="4.882813e-004">
		<stop  offset="0" style="stop-color:#020202"/>
		<stop  offset="1" style="stop-color:#262626"/>
	</linearGradient>
	<path fill="url(#SVGID_2_)" d="M929.915,388.205c-1.643-2.02-3.11-3.335-3.835-4.979c-7.336-16.582-14.514-33.214-21.658-49.89
		c-10.619-24.711-20.725-49.609-31.633-74.271c-9.123-20.765-19.291-41.153-28.607-61.823c-12.213-27.2-23.934-54.495-35.953-81.741
		C792.592,80.032,776.906,44.519,761.268,9.05c-0.289-0.752-0.576-1.454-0.867-2.206C758.859,2.896,758.52,1,760.205,0h-94.232
		c1.535,1,2.516,2.232,3.59,4.683c24.086,55.527,48.172,111.006,72.113,166.488c12.164,28.044,24.084,56.138,36.104,84.184
		c0.291,0.61,0.58,1.22,0.918,1.83c1.932,3.383,3.475,3.76,6.613,1.223c6.805-5.496,13.467-11.134,20.176-16.725
		c2.75-2.301,5.455-4.65,8.205-6.952c3.91-3.242,5.6-2.866,7.531,1.597c3.137,7.234,6.275,14.469,9.461,21.704
		c0.529,1.221,1.107,2.442,1.736,3.665c1.979,3.616,1.449,7-1.063,10.334c-17.57,23.489-34.994,47.024-52.564,70.466
		c-10.668,14.188-21.527,28.235-32.291,42.326c-0.723,0.989-1.592,1.929-2.895,3.478c-1.207-1.926-2.27-3.242-2.896-4.696
		c-9.316-20.813-18.68-41.624-27.756-62.481c-18.004-41.342-35.719-82.774-53.721-124.115
		c-21.723-49.796-43.637-99.545-65.502-149.295c-6.227-14.14-12.598-28.23-18.871-42.371C573.576,2.527,573.484,1,574.855,0H0v560
		h960V347.869C950,361.3,940.04,374.741,929.915,388.205z M652.717,331.363c-9.896,12.355-19.646,24.756-29.492,37.159
		c-4.344,5.45-8.592,10.994-13.08,16.348c-0.967,1.127-2.607,2.349-4.006,2.443c-0.918,0.047-2.367-1.737-2.945-2.912
		c-22.541-48.434-44.938-96.915-67.479-145.35c-11.15-24.1-22.445-48.152-33.691-72.204c-3.186-6.858-5.453-7.188-11.537-1.88
		c-14.094,12.355-28.092,24.758-42.234,37.02c-46.53,40.307-93.062,80.66-139.786,120.779
		c-21.188,18.18-42.909,35.938-64.438,53.836c-1.014,0.845-2.365,1.41-3.523,2.113c-0.435-0.327-0.868-0.609-1.304-0.939
		c1.738-2.817,3.187-5.87,5.165-8.597c10.281-13.199,20.659-26.354,31.036-39.46c26.886-34.014,53.675-68.118,80.754-101.989
		c19.838-24.804,40.256-49.232,60.141-73.989c33.884-42.186,67.576-84.467,101.365-126.699c1.545-1.879,3.139-3.758,4.828-5.543
		c3.232-3.477,5.018-3.289,6.854,0.799c3.908,8.738,7.77,17.521,11.584,26.307c16.557,38.24,33.16,76.48,49.57,114.814
		c15.494,36.172,30.555,72.438,46.049,108.565c5.695,13.248,11.729,26.399,18.197,39.366
		C658.363,318.632,657.832,324.975,652.717,331.363z"/>
</g>
</svg>
